<svg xmlns="http://www.w3.org/2000/svg" viewBox="0 0 246.22 35.55"><g id="Layer_2" data-name="Layer 2"><g id="Layer_1-2" data-name="Layer 1"><path d="M.24,24.9H2.73L5.16,7.68H2.67L2.91,5.9H6.14l8.28,13.18,12-13.18h3.2l-.24,1.78H26.89L24.46,24.9H27l-.24,1.78H20.15l.24-1.78h2.2l1.9-13.27c0-.2.05-.45.1-.74s.09-.54.13-.72c-.14.18-.29.38-.47.58l-.51.58L14,22.08,7.3,11.39c-.16-.26-.29-.47-.38-.65l-.33-.57q0,.24,0,.66c0,.28,0,.51-.06.71L4.6,24.9H6.83l-.24,1.78H0Z"/><path d="M31.46,24.9q2.82-5.05,5.63-10T42.71,5q1.42,5.05,2.83,10t2.84,10h2.37l-.23,1.78H44.34l.24-1.78h1.9l-.95-3.39c-.32-1.12-.64-2.25-1-3.38H37.16L33.33,24.9h1.93L35,26.68H28.85l.24-1.78Zm12.62-8.55L42.26,10l-.14-.92c-.2.45-.33.72-.37.8l-.2.32c-.45.88-1,1.87-1.63,3l-1.75,3.12Z"/><path d="M66.6,24.9l-3-4.72-3-4.72L58,17.57q-.27,1.83-.51,3.66c-.16,1.22-.32,2.44-.5,3.67h2.43l-.24,1.78H52.59l.24-1.78h2.29L57.55,7.68H55.26L55.5,5.9h6.18l-.24,1.78h-2l-1,6.92c0,.16,0,.31-.07.46s-.07.3-.11.46l.63-.66L67.4,7.68H66.07l.27-1.78h6.17l-.24,1.78H69.75l-7.84,6.59,3.48,5.31,3.44,5.32h2.29l-.24,1.78H64.7l.24-1.78Z"/><path d="M75.09,24.9,77.5,7.68H75.63l.23-1.78H90.32l-.65,4.57H87.88l.39-2.79h-8.9L78.3,15.31h9.55l-.29,1.78H78L77,24.9h9.32l.39-2.79h1.78l-.62,4.57H73l.23-1.78Z"/><path d="M99.43,5.9l-.24,1.78H96.76L95,19.88a5.33,5.33,0,0,0,.06,2.27A3.67,3.67,0,0,0,96,23.8a4.17,4.17,0,0,0,1.59,1,6,6,0,0,0,2.09.34,7,7,0,0,0,2.22-.34,5.58,5.58,0,0,0,1.87-1,5.15,5.15,0,0,0,1.32-1.63,7.32,7.32,0,0,0,.73-2.26l1.72-12.2h-2.46l.27-1.78h6.59l-.24,1.78H109.4L107.65,20a8.67,8.67,0,0,1-1,3,7.15,7.15,0,0,1-1.83,2.16,7.49,7.49,0,0,1-2.49,1.34,9.51,9.51,0,0,1-2.94.44,8.37,8.37,0,0,1-2.81-.44,5.41,5.41,0,0,1-2.12-1.34A4.9,4.9,0,0,1,93.27,23a7.19,7.19,0,0,1-.13-3L94.89,7.68H92.6l.24-1.78Z"/><path d="M112.88,24.9l2.4-17.22h-1.54L114,5.9h6.24a7.8,7.8,0,0,1,2.1.31,6.35,6.35,0,0,1,2,1,4.87,4.87,0,0,1,1.46,1.72,4.26,4.26,0,0,1,.32,2.55,6.48,6.48,0,0,1-2.21,4.17,7.21,7.21,0,0,1-4.85,1.56h-3.27l-1.06,7.72h3.14l-.24,1.78h-6.58l.23-1.78Zm6-9.53a6.48,6.48,0,0,0,2.4-.39,5.4,5.4,0,0,0,1.64-1,3.62,3.62,0,0,0,.93-1.26,4.82,4.82,0,0,0,.4-1.32,2.9,2.9,0,0,0-.18-1.44,3.46,3.46,0,0,0-.8-1.2A4.56,4.56,0,0,0,121.85,8,5.48,5.48,0,0,0,120,7.68h-2.85l-1.07,7.69Z"/><path d="M154.74,24.33h1.34V8.25h-1.34V5.9H161a9,9,0,0,1,2.24.31,7.62,7.62,0,0,1,2.3,1A6,6,0,0,1,167.3,9a4.57,4.57,0,0,1,.71,2.58,6.06,6.06,0,0,1-1.11,3.72,5.36,5.36,0,0,1-3.25,2L167,24.33h2.79v2.35h-4.33l-4.37-9.26h-2.52v6.91h3.38v2.35h-7.18Zm3.8-9.32h2.58a5.73,5.73,0,0,0,2.15-.34,3.71,3.71,0,0,0,1.35-.84,2.83,2.83,0,0,0,.72-1.12,3.7,3.7,0,0,0,.2-1.18,2.45,2.45,0,0,0-.34-1.25,3.47,3.47,0,0,0-.92-1,4.37,4.37,0,0,0-1.39-.73,5.55,5.55,0,0,0-1.74-.26h-2.61Z"/><path d="M171.84,16.32a10.2,10.2,0,0,1,.83-4.11,10.72,10.72,0,0,1,5.64-5.7,10.39,10.39,0,0,1,8.23,0,10.83,10.83,0,0,1,5.7,5.7,10.39,10.39,0,0,1,0,8.23,10.72,10.72,0,0,1-5.7,5.64,10.62,10.62,0,0,1-8.23,0,10.61,10.61,0,0,1-5.64-5.64A10.18,10.18,0,0,1,171.84,16.32Zm2.46,0a8.2,8.2,0,0,0,2.39,5.83,8.53,8.53,0,0,0,2.6,1.76,8.08,8.08,0,0,0,6.35,0,8.65,8.65,0,0,0,2.6-1.76,8.38,8.38,0,0,0,1.75-9,8.31,8.31,0,0,0-4.35-4.4,8.08,8.08,0,0,0-6.35,0,8.31,8.31,0,0,0-4.35,4.4A8,8,0,0,0,174.3,16.33Z"/><path d="M208.85,10.47V8.66A7.68,7.68,0,0,0,205.76,8a7.77,7.77,0,0,0-3.16.65,8.16,8.16,0,0,0-2.58,1.8,8.38,8.38,0,0,0-1.75,2.65,8.11,8.11,0,0,0-.64,3.21A8.29,8.29,0,0,0,200,22.15a8.59,8.59,0,0,0,2.58,1.77,7.77,7.77,0,0,0,3.16.65,7.92,7.92,0,0,0,4.07-1.1l1.33,2a11.15,11.15,0,0,1-2.53,1.08,10,10,0,0,1-2.87.4,10.18,10.18,0,0,1-4.12-.83A10.61,10.61,0,0,1,196,20.44a10.18,10.18,0,0,1-.83-4.12,10.28,10.28,0,0,1,.83-4.14,10.57,10.57,0,0,1,2.27-3.39,11,11,0,0,1,3.37-2.28,10,10,0,0,1,4.12-.85,10.31,10.31,0,0,1,2.87.39,10.93,10.93,0,0,1,2.56,1.1v3.32Z"/><path d="M225,24.33h1.54q-1.69-2.1-3.34-4.2t-3.31-4.23L218,17.65v6.68h2.43v2.35h-7.18V24.33h2.29V8.25h-2.29V5.9h6.59V8.25H218V14c0,.16,0,.32,0,.48s0,.31,0,.47l.57-.68,6.35-6.05h-1.1V5.9h6.59V8.25h-2.47l-6.38,6.08q2,2.52,4,5l4,5h2.13v2.35H225Z"/><path d="M233.22,23.92V20.47h2.34v2.65a8.23,8.23,0,0,0,1.84,1,6.35,6.35,0,0,0,2.41.43,4.91,4.91,0,0,0,1.48-.22,4,4,0,0,0,1.26-.66,3,3,0,0,0,.88-1.08,3.42,3.42,0,0,0,.32-1.51,3.54,3.54,0,0,0-.71-2.38,4.87,4.87,0,0,0-1.78-1.29,15.77,15.77,0,0,0-2.32-.78,11,11,0,0,1-2.32-.9,5.09,5.09,0,0,1-1.82-1.57,5,5,0,0,1-.75-2.85,6.34,6.34,0,0,1,.26-2,5.11,5.11,0,0,1,1-1.78,5,5,0,0,1,1.81-1.3,6.75,6.75,0,0,1,2.77-.51c.35,0,.74,0,1.15.06a8.28,8.28,0,0,1,1.31.24,8.51,8.51,0,0,1,1.41.53,7.94,7.94,0,0,1,1.44.95v2.91h-2.35V8.72a8.29,8.29,0,0,0-1.3-.42,7.58,7.58,0,0,0-1.64-.17,3.15,3.15,0,0,0-2.55,1,3.47,3.47,0,0,0-.83,2.31,2.32,2.32,0,0,0,.42,1.44,3.3,3.3,0,0,0,1.09.92,8.6,8.6,0,0,0,1.56.64c.59.18,1.18.37,1.78.58a14.52,14.52,0,0,1,1.78.74,5.47,5.47,0,0,1,1.56,1.13,5.19,5.19,0,0,1,1.1,1.72,6.71,6.71,0,0,1,.42,2.54,5.78,5.78,0,0,1-.49,2.4,5.56,5.56,0,0,1-1.34,1.83,5.78,5.78,0,0,1-2,1.15,7,7,0,0,1-2.38.4,9.37,9.37,0,0,1-2.19-.25,9.8,9.8,0,0,1-2-.67,8.13,8.13,0,0,1-1.59-.94A4.55,4.55,0,0,1,233.22,23.92Z"/><polygon points="138.94 0 156.2 0 141.47 11.68 152.14 11.68 123.7 35.55 138.43 16.25 128.78 16.25 138.94 0"/></g></g></svg>